<?xml version="1.0" standalone="no"?>
<!DOCTYPE svg PUBLIC "-//W3C//DTD SVG 20010904//EN"
 "http://www.w3.org/TR/2001/REC-SVG-20010904/DTD/svg10.dtd">
<svg version="1.0" xmlns="http://www.w3.org/2000/svg"
 width="700.000000pt" height="700.000000pt" viewBox="0 0 700.000000 700.000000"
 preserveAspectRatio="xMidYMid meet">
<metadata>
Created by potrace 1.11, written by Peter Selinger 2001-2013
</metadata>
<g transform="translate(0.000000,700.000000) scale(0.100000,-0.100000)"
fill="#000000" stroke="none">
<path d="M3417 6990 c-95 -24 -192 -103 -237 -195 -20 -41 -24 -65 -24 -135 0
-47 3 -101 7 -120 l8 -35 -81 -40 c-45 -22 -84 -43 -86 -47 -2 -4 8 -32 23
-62 l27 -56 93 50 c52 28 95 50 97 50 2 0 20 -13 41 -30 116 -92 287 -96 415
-9 173 118 199 368 55 528 -54 59 -143 100 -230 106 -39 2 -87 0 -108 -5z"/>
<path d="M3937 6375 c-30 -63 -31 -65 -16 -65 6 0 50 -22 98 -48 125 -70 116
-69 150 -6 l29 54 -61 34 c-91 50 -161 86 -167 86 -3 0 -18 -25 -33 -55z"/>
<path d="M2700 6259 c-30 -17 -79 -43 -108 -60 l-53 -30 28 -52 c15 -29 29
-54 30 -55 1 -3 191 93 223 113 10 6 -43 108 -57 112 -5 1 -33 -12 -63 -28z"/>
<path d="M3441 6220 c-4 -3 -7 -61 -6 -130 l0 -125 55 -1 c30 0 60 3 66 8 6 4
10 54 9 130 l-1 122 -58 1 c-32 0 -61 -2 -65 -5z"/>
<path d="M4396 6135 c-16 -31 -27 -57 -25 -59 12 -12 212 -116 222 -116 11 0
58 103 50 111 -7 7 -211 119 -216 119 -1 0 -15 -25 -31 -55z"/>
<path d="M2198 5992 c-59 -31 -108 -62 -108 -68 0 -13 49 -104 56 -104 5 0
214 109 222 115 4 4 -32 75 -50 97 -12 15 -22 12 -120 -40z"/>
<path d="M4854 5895 c-19 -35 -25 -58 -19 -64 14 -13 200 -111 211 -111 8 0
19 18 53 87 10 19 6 23 -32 43 -23 12 -74 39 -113 60 l-70 39 -30 -54z"/>
<path d="M1751 5755 c-57 -30 -108 -58 -113 -63 -10 -10 38 -112 51 -112 14 0
221 111 221 118 -1 4 -13 30 -28 59 l-27 51 -104 -53z"/>
<path d="M3447 5700 c-9 -4 -12 -41 -12 -127 0 -68 2 -123 5 -124 24 -5 120
-5 121 0 4 21 3 251 -1 252 -23 4 -103 3 -113 -1z"/>
<path d="M5307 5645 c-24 -50 -25 -55 -9 -64 9 -5 61 -32 114 -60 l97 -50 29
54 c21 39 27 57 18 63 -19 16 -202 112 -212 112 -6 0 -22 -25 -37 -55z"/>
<path d="M633 5541 c-100 -35 -171 -100 -215 -198 -34 -75 -32 -198 5 -279 77
-167 270 -247 440 -184 250 94 308 423 105 595 -88 75 -231 103 -335 66z"/>
<path d="M1335 5534 c-52 -27 -158 -85 -162 -89 -2 -1 11 -27 27 -57 l31 -56
97 51 c145 75 136 64 100 125 -16 29 -33 52 -36 52 -4 0 -30 -12 -57 -26z"/>
<path d="M6165 5546 c-68 -19 -121 -53 -170 -109 l-47 -53 -72 38 c-39 20 -73
38 -76 38 -7 0 -63 -110 -59 -114 2 -2 41 -22 86 -46 l81 -42 1 -57 c1 -207
195 -371 400 -339 117 18 218 95 267 200 24 54 28 76 28 148 1 71 -4 94 -26
142 -34 73 -104 142 -175 175 -65 30 -171 38 -238 19z"/>
<path d="M3439 5186 c-1 -1 -2 -58 -3 -129 -1 -78 3 -127 9 -128 12 -1 108 -1
115 0 7 1 7 251 0 252 -6 2 -119 6 -121 5z"/>
<path d="M5710 4890 c-52 -33 -99 -61 -105 -63 -10 -4 15 -57 44 -96 16 -20
17 -19 116 40 55 34 104 64 108 68 8 8 -50 111 -62 111 -3 0 -49 -27 -101 -60z"/>
<path d="M1200 4868 l-32 -52 22 -16 c13 -8 63 -38 111 -67 l88 -52 30 50 c17
27 31 53 31 57 0 7 -202 132 -213 132 -3 0 -20 -23 -37 -52z"/>
<path d="M676 4688 l0 -133 65 0 64 0 1 133 0 132 -65 0 -66 0 1 -132z"/>
<path d="M6197 4813 c-2 -5 -4 -64 -3 -133 l1 -125 63 -3 c34 -2 62 1 63 5 3
32 4 241 1 251 -5 13 -118 18 -125 5z"/>
<path d="M5253 4616 l-101 -62 30 -52 c16 -29 34 -52 39 -52 6 0 57 28 114 63
l103 62 -28 50 c-16 28 -35 51 -42 52 -7 1 -59 -26 -115 -61z"/>
<path d="M3438 4663 c-2 -4 -4 -62 -4 -128 l1 -120 65 -3 66 -3 -1 128 0 128
-62 3 c-33 2 -63 0 -65 -5z"/>
<path d="M1641 4598 c-16 -29 -29 -53 -28 -54 1 -1 50 -31 109 -67 l107 -65
31 50 c17 27 30 54 28 59 -3 10 -196 129 -208 129 -5 0 -22 -24 -39 -52z"/>
<path d="M4822 4356 c-56 -35 -105 -66 -108 -69 -5 -5 54 -107 63 -107 12 0
213 123 213 131 0 8 -60 110 -63 108 -1 0 -48 -29 -105 -63z"/>
<path d="M2104 4362 c-9 -15 -25 -39 -35 -54 l-18 -26 101 -63 c55 -34 107
-62 115 -63 7 0 27 22 43 50 l30 51 -110 66 -110 66 -16 -27z"/>
<path d="M679 4275 c0 -5 -1 -66 -2 -134 l-1 -124 47 -1 c85 -2 84 -5 82 135
-1 68 -3 126 -4 129 -2 10 -121 5 -122 -5z"/>
<path d="M6199 4285 c-1 0 -3 -60 -4 -132 l-3 -133 39 -1 c21 -1 49 -2 61 -2
15 -1 23 6 27 23 5 20 6 169 2 230 -1 15 -6 15 -122 15z"/>
<path d="M3439 4148 c-1 -2 -2 -61 -3 -131 l-2 -128 66 3 65 3 0 125 0 125
-63 3 c-34 2 -63 2 -63 0z"/>
<path d="M4389 4094 c-131 -78 -126 -72 -89 -133 17 -28 33 -51 35 -51 5 0
199 120 207 128 7 7 -47 112 -57 112 -1 0 -44 -25 -96 -56z"/>
<path d="M2545 4095 c-8 -14 -22 -36 -30 -50 -9 -14 -14 -29 -11 -34 4 -6 155
-99 208 -128 11 -6 70 99 61 108 -10 10 -203 129 -209 129 -2 0 -10 -11 -19
-25z"/>
<path d="M3933 3817 c-57 -34 -103 -65 -103 -69 0 -4 14 -30 31 -57 l30 -50
107 65 c59 36 108 67 110 69 5 4 -59 105 -66 105 -4 0 -53 -28 -109 -63z"/>
<path d="M2997 3843 c-2 -5 -16 -29 -31 -54 l-27 -47 103 -62 c57 -35 109 -63
116 -63 8 0 10 -7 5 -21 -9 -23 -10 -156 -3 -195 4 -22 -4 -29 -72 -66 -42
-22 -80 -43 -83 -47 -6 -6 27 -80 47 -105 6 -8 31 1 89 33 88 49 100 52 120
28 22 -27 87 -64 138 -80 163 -49 337 28 418 186 22 45 28 70 30 136 1 45 -4
95 -10 115 -58 158 -191 255 -344 248 -96 -4 -169 -35 -238 -100 l-30 -28
-105 64 c-109 67 -116 70 -123 58z"/>
<path d="M675 3622 c0 -74 4 -130 10 -133 6 -3 35 -6 65 -5 l55 1 1 133 0 132
-65 0 -66 0 0 -128z"/>
<path d="M6194 3618 l1 -133 63 -2 c34 0 62 2 63 5 3 25 4 239 1 250 -3 8 -25
12 -66 12 l-62 0 0 -132z"/>
<path d="M3937 3246 l-26 -55 62 -34 c34 -19 86 -46 114 -61 l53 -26 30 60
c17 33 27 60 22 60 -5 0 -55 25 -111 55 -57 30 -106 55 -110 55 -4 0 -19 -24
-34 -54z"/>
<path d="M676 3086 l0 -131 65 -3 65 -3 0 131 c0 71 -2 131 -5 131 -4 1 -33 3
-66 4 l-60 2 1 -131z"/>
<path d="M6196 3211 c-2 -3 -3 -63 -3 -133 l0 -128 63 0 c35 0 64 3 65 8 1 10
1 224 0 243 -1 12 -13 16 -61 16 -34 0 -62 -3 -64 -6z"/>
<path d="M2670 3114 c-47 -26 -95 -53 -107 -60 l-23 -14 28 -53 c15 -28 28
-54 29 -55 1 -3 170 83 225 115 8 4 -46 106 -59 110 -4 1 -46 -18 -93 -43z"/>
<path d="M3438 3103 c-2 -4 -4 -62 -4 -128 l1 -120 65 0 65 0 0 125 0 125 -62
3 c-34 2 -63 -1 -65 -5z"/>
<path d="M4396 3005 c-16 -31 -27 -57 -25 -59 8 -7 216 -116 222 -116 8 0 62
108 56 113 -7 6 -216 117 -220 117 -2 0 -17 -25 -33 -55z"/>
<path d="M2285 2912 c-6 -5 -50 -31 -100 -57 -49 -26 -93 -49 -97 -51 -5 -3
49 -114 56 -114 8 0 216 112 220 118 6 10 -46 105 -59 109 -6 2 -15 -1 -20 -5z"/>
<path d="M4852 2763 l-29 -58 113 -60 c62 -32 115 -57 117 -55 3 3 16 28 31
57 l26 52 -23 12 c-12 7 -63 34 -114 61 l-91 49 -30 -58z"/>
<path d="M682 2675 c-10 -16 -8 -246 3 -254 6 -4 35 -7 65 -6 l55 1 1 128 c0
77 -4 130 -10 134 -17 10 -107 8 -114 -3z"/>
<path d="M6202 2675 c-13 -19 -11 -255 2 -256 46 -4 116 -3 117 1 4 21 3 260
-1 261 -32 6 -113 2 -118 -6z"/>
<path d="M1810 2657 c-19 -11 -65 -35 -103 -55 -37 -19 -70 -38 -73 -43 -6
-11 44 -109 56 -109 5 0 26 10 47 21 21 12 63 34 93 50 88 46 85 40 56 97 -14
28 -29 53 -33 55 -5 2 -24 -5 -43 -16z"/>
<path d="M3437 2583 c-2 -5 -3 -62 -3 -128 l1 -120 65 0 65 0 0 128 1 127 -63
0 c-34 0 -63 -3 -66 -7z"/>
<path d="M5307 2515 l-27 -55 73 -36 c39 -20 91 -47 113 -60 l42 -25 30 58 30
58 -108 58 c-59 31 -112 57 -117 57 -5 0 -21 -25 -36 -55z"/>
<path d="M1365 2421 c-6 -4 -51 -30 -102 -56 -72 -38 -90 -51 -84 -64 36 -84
60 -107 87 -82 5 4 50 30 101 56 l92 48 -27 53 c-26 50 -47 64 -67 45z"/>
<path d="M670 2360 c-55 -10 -131 -51 -178 -97 -166 -163 -116 -461 94 -559
56 -26 127 -42 165 -38 82 11 105 17 148 38 66 34 128 98 159 164 23 49 27 70
27 152 0 106 -12 142 -73 219 -78 97 -213 145 -342 121z"/>
<path d="M6164 2355 c-57 -17 -100 -41 -144 -81 l-39 -36 -87 46 c-48 25 -90
46 -93 46 -8 0 -66 -109 -60 -113 2 -1 29 -16 59 -32 112 -59 115 -61 113 -86
-12 -130 8 -216 67 -296 33 -45 113 -101 172 -121 88 -30 245 -6 309 48 105
88 140 156 145 277 6 161 -85 290 -243 344 -49 17 -148 19 -199 4z"/>
<path d="M3441 2065 c-4 -5 -7 -64 -7 -130 l1 -120 65 0 65 0 0 128 c1 107 -2
127 -15 128 -81 4 -102 3 -109 -6z"/>
<path d="M5705 1759 c-55 -34 -101 -63 -103 -64 -4 -4 32 -75 50 -97 12 -15
22 -11 116 46 56 35 105 65 108 68 6 7 -55 108 -64 108 -4 0 -52 -28 -107 -61z"/>
<path d="M1207 1753 c-42 -69 -43 -66 51 -124 48 -29 97 -59 108 -66 21 -13
24 -11 54 42 18 31 31 58 29 60 -10 8 -207 125 -213 125 -3 0 -16 -17 -29 -37z"/>
<path d="M3439 1555 c-1 0 -2 -57 -3 -127 -1 -79 3 -129 9 -131 9 -3 101 -2
115 2 9 2 5 239 -3 248 -6 5 -81 11 -118 8z"/>
<path d="M5254 1486 l-102 -62 32 -52 c17 -29 34 -52 38 -52 4 0 54 28 112 63
l104 63 -30 52 c-16 29 -35 52 -41 52 -7 -1 -58 -29 -113 -64z"/>
<path d="M1641 1471 c-25 -42 -28 -51 -16 -61 20 -17 196 -120 204 -120 11 0
62 92 58 104 -5 12 -190 126 -205 126 -6 0 -24 -22 -41 -49z"/>
<path d="M4817 1224 l-108 -66 27 -46 c15 -26 30 -51 35 -56 6 -6 185 92 219
121 5 5 -24 59 -48 90 l-17 22 -108 -65z"/>
<path d="M2091 1213 c-17 -26 -31 -52 -30 -58 0 -5 47 -39 105 -74 118 -71
107 -71 153 10 l21 36 -88 54 c-48 29 -97 59 -109 67 -21 13 -24 11 -52 -35z"/>
<path d="M3439 1030 c-7 -29 -2 -250 6 -253 5 -2 35 -3 65 -3 l55 1 0 130 0
130 -62 0 c-35 0 -64 -2 -64 -5z"/>
<path d="M4373 957 c-56 -34 -103 -65 -103 -69 0 -4 14 -30 32 -57 29 -48 33
-50 52 -38 12 7 60 37 109 66 48 29 87 54 87 57 0 9 -62 104 -68 103 -4 0 -53
-28 -109 -62z"/>
<path d="M2531 940 c-33 -54 -33 -65 2 -81 12 -5 58 -31 101 -58 l79 -49 17
21 c26 34 54 86 49 90 -5 5 -200 120 -210 125 -4 2 -21 -20 -38 -48z"/>
<path d="M3935 690 c-55 -33 -101 -64 -103 -69 -2 -5 11 -32 28 -59 l31 -50
107 64 c58 36 108 67 110 69 2 2 -4 17 -14 32 -11 15 -24 37 -30 47 -6 11 -15
21 -20 23 -5 1 -54 -24 -109 -57z"/>
<path d="M2970 669 c-17 -28 -30 -52 -28 -54 2 -1 51 -32 110 -68 l107 -66 31
53 c16 29 30 56 30 60 0 3 -17 15 -37 26 -21 12 -67 39 -103 60 -36 22 -68 40
-72 40 -3 0 -20 -23 -38 -51z"/>
<path d="M3447 699 c-233 -36 -363 -290 -258 -503 126 -257 496 -257 622 -1
59 121 48 260 -28 362 -47 63 -83 91 -151 118 -69 27 -121 34 -185 24z"/>
</g>
</svg>
